<?xml version="1.0" standalone="no"?>
<!DOCTYPE svg PUBLIC "-//W3C//DTD SVG 20010904//EN"
 "http://www.w3.org/TR/2001/REC-SVG-20010904/DTD/svg10.dtd">
<svg stroke="#FFF" fill='#d23c22' version="1.0" xmlns="http://www.w3.org/2000/svg"
 width="128.000000pt" height="128.000000pt" viewBox="0 0 128.000000 128.000000"
 preserveAspectRatio="xMidYMid meet">

<g transform="translate(0.000000,128.000000) scale(0.100000,-0.100000)"
fill="#d23c22" stroke="none">
<path d="M25 1255 l-25 -24 0 -591 0 -591 25 -24 24 -25 591 0 591 0 24 25 25
24 0 591 0 591 -25 24 -24 25 -591 0 -591 0 -24 -25z m455 -391 c99 -85 185
-167 190 -180 7 -18 6 -33 -3 -50 -7 -13 -93 -90 -192 -169 -144 -116 -185
-145 -210 -145 -40 0 -55 16 -55 57 0 41 5 46 173 182 70 56 127 104 127 106
0 2 -55 49 -122 106 -155 131 -166 142 -174 173 -9 38 19 76 55 76 23 0 67
-33 211 -156z m568 -456 l3 -58 -206 0 -205 0 0 60 0 60 203 -2 202 -3 3 -57z"/>
</g>
</svg>
